<svg id="a3ad9317-4eb5-45b9-9550-ab55654f9f05" xmlns="http://www.w3.org/2000/svg" viewBox="0 0 649.68 568.22"><defs><style>.cls-1{fill:#f2f2f2;}.cls-2{fill:#fff;}.cls-3{fill:#3f3d56;}.cls-4{fill:#6c63ff;}.cls-5{fill:#e4e4e4;}.cls-6{fill:#2f2e41;}.cls-7{fill:#ffd4a4;}</style></defs><path class="cls-1" d="M122.08,400.15l-6.7,52.78-9.86-60C58.14,374.79,2.74,371.26,2.74,371.26S-9.49,485.77,30.87,533.65s82.93,40.6,118,11,49.48-70.32,9.12-118.2C149,415.8,136.36,407.15,122.08,400.15Z"/><path class="cls-2" d="M108.94,460.91l2,2.36c23,27.55,36.4,52.85,40,75.58.06.33.1.66.15,1l-1.53.23-1.49.21c-3.65-24.76-19.48-50.77-39.52-74.81-.64-.78-1.29-1.57-2-2.34C98,453,88.78,443.3,79.4,434.19c-.72-.72-1.47-1.43-2.21-2.14-12.45-12-25-22.85-36.24-32-.79-.66-1.59-1.3-2.38-1.93C19.51,382.62,4.67,372.29,1.36,370l-.68-.47.84-1.25v0L2.38,367c.05,0,.81.53,2.18,1.5,5.16,3.57,19,13.39,36.15,27.27l2.36,1.92c9.12,7.45,19.07,16,29.1,25.26q3.8,3.5,7.38,7c.75.7,1.5,1.42,2.22,2.13Q97,446.85,108.94,460.91Z"/><path class="cls-2" d="M40.71,395.79c-.7.76-1.4,1.54-2.14,2.3a83.46,83.46,0,0,1-6.3,5.89A82,82,0,0,1,0,420.71l.09,3.12a85.08,85.08,0,0,0,34.15-17.51A86.92,86.92,0,0,0,41,400c.73-.76,1.44-1.53,2.12-2.31A84.28,84.28,0,0,0,57,376.36l-3.07-.65A82.07,82.07,0,0,1,40.71,395.79Z"/><path class="cls-2" d="M79.55,429.94c-.77.72-1.55,1.43-2.36,2.11-.23.22-.49.43-.74.64A82.42,82.42,0,0,1,1.94,449.28c.11,1.08.23,2.17.36,3.25A85.51,85.51,0,0,0,78.42,435l1-.84c.8-.7,1.59-1.41,2.37-2.12a85.07,85.07,0,0,0,24.39-41.36c-1-.37-1.91-.75-2.87-1.11A81.88,81.88,0,0,1,79.55,429.94Z"/><path class="cls-2" d="M108.94,460.91c-.76.76-1.54,1.49-2.33,2.22s-1.7,1.53-2.58,2.27A82.65,82.65,0,0,1,5.11,471c.27,1.39.53,2.77.83,4.14A85.68,85.68,0,0,0,106,467.74c.88-.74,1.75-1.49,2.57-2.27s1.59-1.45,2.36-2.2a85.42,85.42,0,0,0,25.37-57.39c-1-.66-2-1.27-3-1.9A82.44,82.44,0,0,1,108.94,460.91Z"/><path class="cls-3" d="M372.87,134.32V49.24A49.24,49.24,0,0,0,323.63,0H143.39A49.24,49.24,0,0,0,94.15,49.24h0v56.5H91v19.91h3.17v21.24H91v30.52h3.17v13.28H91v30.52h3.17V516a49.24,49.24,0,0,0,49.24,49.24H323.63A49.24,49.24,0,0,0,372.87,516h0V194.88H376V134.32Z"/><path class="cls-2" d="M325.62,12.81H302.09a17.46,17.46,0,0,1-16.17,24.07H182.66a17.48,17.48,0,0,1-16.18-24.07h-22a36.78,36.78,0,0,0-36.78,36.77h0V515.64a36.78,36.78,0,0,0,36.78,36.77H325.62a36.77,36.77,0,0,0,36.77-36.77h0V49.58a36.77,36.77,0,0,0-36.77-36.77Z"/><path class="cls-4" d="M330.18,175H140a5,5,0,0,1-5-5V92.82a5,5,0,0,1,5-5H330.18a5,5,0,0,1,5,5V170A5,5,0,0,1,330.18,175Z"/><path class="cls-4" d="M312.06,211.53h-154a5.5,5.5,0,0,1,0-11h154a5.5,5.5,0,0,1,0,11Z"/><path class="cls-5" d="M312.06,239.53h-154a6,6,0,0,1,0-12h154a6,6,0,0,1,0,12Z"/><path class="cls-5" d="M312.06,267h-154a6,6,0,0,1,0-12h154a6,6,0,1,1,0,12Z"/><path class="cls-5" d="M330.18,406H140a5,5,0,0,1-5-5V323.82a5,5,0,0,1,5-5H330.18a5,5,0,0,1,5,5V401A5,5,0,0,1,330.18,406Z"/><path class="cls-5" d="M312.06,443h-154a6,6,0,1,1,0-12h154a6,6,0,0,1,0,12Z"/><path class="cls-5" d="M312.06,470.53h-154a6,6,0,1,1,0-12h154a6,6,0,0,1,0,12Z"/><path class="cls-5" d="M312.06,498h-154a6,6,0,1,1,0-12h154a6,6,0,0,1,0,12Z"/><path class="cls-6" d="M484.9,146.34c-1.93-14.19-4.36-29.43-14.37-39.67a33.66,33.66,0,0,0-47.59-.55c-.35.34-.69.69-1,1-7.29,7.77-10.5,18.69-10.8,29.34s2.08,21.17,4.71,31.5a97,97,0,0,0,40.52-8,64.89,64.89,0,0,1,9.72-3.81c3.37-.86,5.78,1.3,8.92,2.81l1.72-3.3c1.41,2.62,5.78,1.85,7.37-.68S485.31,149.29,484.9,146.34Z"/><polygon class="cls-7" points="612.43 535.01 602.21 541.77 571.26 505.55 586.35 495.56 612.43 535.01"/><path class="cls-6" d="M621.6,543.19l-33,21.81-.27-.42a15.39,15.39,0,0,1,4.34-21.32h0l20.13-13.32Z"/><polygon class="cls-7" points="480.43 553.12 468.17 553.12 462.34 505.83 480.43 505.83 480.43 553.12"/><path class="cls-6" d="M483.56,565H444v-.5a15.4,15.4,0,0,1,15.39-15.39h24.15Z"/><path class="cls-7" d="M393.2,228.15l-46.29-33.07a9,9,0,1,0-10.81,7.75c5.79,4.86,48,46.89,54.1,44.67s33-6.32,33-6.32l.74-25.5Z"/><path class="cls-6" d="M429.57,288.31l.44,58.18s10,86.2,13.71,100.76,18.69,81.94,18.69,81.94l24.38-3.93-15.7-88.1,4.75-73,27.36,73.17L572.68,510l17.61-14.21-60.48-88.88-18.47-72.81s2.3-37.66-18.4-52.17Z"/><circle class="cls-7" cx="443.57" cy="133.66" r="26.72"/><rect class="cls-6" x="447.82" y="299.45" width="24.29" height="31.58" transform="translate(-15.77 606.12) rotate(-65.87)"/><path class="cls-5" d="M486.37,185.07c-3.15-6.27-4.68-14-11.39-16-4.53-1.37-22.87.68-27,3-6.87,3.85-.65,11.07-4.7,17.82l-13.22,22c-3,5-6.09,10.16-7.73,15.82s-1.72,12,1.07,17.19c2.5,4.64,7,7.93,9.54,12.56,2.61,4.82-2.08,26.33-4.51,31.25l1.17.53A262.3,262.3,0,0,0,478,287.61c4-.5,8.13-1.16,11.42-3.47,4.84-3.41,6.75-9.6,8-15.4A129.67,129.67,0,0,0,486.37,185.07Z"/><path class="cls-5" d="M431.69,245.76c7.24-7.11,14.51-14.27,20.47-22.49s10.59-17.62,11.89-27.69a20.63,20.63,0,0,0-.64-9.62c-1.11-3-3.57-5.75-6.74-6.45-5.07-1.11-9.68,2.94-13.3,6.66l-32,32.94q10.2,13.42,20.39,26.84Z"/><path class="cls-7" d="M510.59,251.24c-2.25-6.14-6.32-33-6.32-33l-25.5-.75,12.47,30.74-34,47.62s.07.1.18.29a9,9,0,1,0,7.46,10.31,6.36,6.36,0,0,0,.08-.75.62.62,0,0,0,.78-.13C469.51,300.83,512.84,257.38,510.59,251.24Z"/><path class="cls-5" d="M513.18,234.28c-2.34-9.87-4.7-19.8-8.64-29.16S495,186.94,487,180.62a20.47,20.47,0,0,0-8.56-4.43,9.88,9.88,0,0,0-9,2.43c-3.58,3.76-2.5,9.8-1.19,14.82l11.61,44.45,33.52-3.56Z"/><path class="cls-6" d="M477,135.73c-.84-6.46-1.71-13-3.67-19.06s-5.13-11.79-9.67-15.24C456.46,96,447.16,97,439.1,100.16c-6.23,2.43-12.31,6.12-16.7,12.06s-6.87,14.4-5.23,22.16L443,127.2,442,128c5.57,3.14,9.81,9.64,11.07,17a28.69,28.69,0,0,1-4.53,21l17.58-7.35c3.62-1.51,7.49-3.25,9.63-7.13C478.25,147.06,477.67,141.1,477,135.73Z"/><path class="cls-4" d="M350.82,177.62l-17.19,25.8a4.5,4.5,0,0,1-7.89-.75,4.29,4.29,0,0,1-.27-.86,4.54,4.54,0,0,1,.67-3.38l17.19-25.8a4.5,4.5,0,1,1,7.49,5Z"/><path class="cls-3" d="M335,201.34l-3.48,5.19L325.38,212a2.45,2.45,0,0,1-3.94-2.63l2.69-7.89,3.4-5.09Z"/><path class="cls-3" d="M351.58,164.1,343,171.69a2.45,2.45,0,0,0-.21,3.46,2.41,2.41,0,0,0,.48.42l1.63,1.09-4.72,7.07a1,1,0,0,0,1.67,1.11h0l4.71-7.08,1.63,1.09a2.46,2.46,0,0,0,3.4-.67,2.58,2.58,0,0,0,.28-.58l3.69-10.88a2.45,2.45,0,0,0-3.94-2.62Z"/><path class="cls-3" d="M648.48,567.11H1.19a1.19,1.19,0,0,1,0-2.38H648.48a1.19,1.19,0,1,1,0,2.38Z"/><path class="cls-2" d="M241.81,21.53h-27a2,2,0,0,1,0-4h27a2,2,0,0,1,0,4Z"/><circle class="cls-2" cx="255.31" cy="19.53" r="2" transform="translate(195.14 268.42) rotate(-80.78)"/></svg>